<?xml version="1.0" encoding="UTF-8" standalone="no"?>
<!-- Created with Inkscape (http://www.inkscape.org/) -->

<svg
   xmlns:dc="http://purl.org/dc/elements/1.1/"
   xmlns:cc="http://creativecommons.org/ns#"
   xmlns:rdf="http://www.w3.org/1999/02/22-rdf-syntax-ns#"
   xmlns:svg="http://www.w3.org/2000/svg"
   xmlns="http://www.w3.org/2000/svg"
   xmlns:sodipodi="http://sodipodi.sourceforge.net/DTD/sodipodi-0.dtd"
   xmlns:inkscape="http://www.inkscape.org/namespaces/inkscape"
   width="68"
   height="68"
   viewBox="0 0 68.000001 68.000001"
   id="svg21746"
   version="1.1"
   inkscape:version="0.91 r13725"
   sodipodi:docname="logo_bw.svg">
  <defs
     id="defs21748">
    <clipPath
       id="clipPath19047"
       clipPathUnits="userSpaceOnUse">
      <path
         inkscape:connector-curvature="0"
         id="path19049"
         d="M 0,590 590,590 590,0 0,0 0,590 Z" />
    </clipPath>
  </defs>
  <sodipodi:namedview
     id="base"
     pagecolor="#ffffff"
     bordercolor="#666666"
     borderopacity="1.0"
     inkscape:pageopacity="0.0"
     inkscape:pageshadow="2"
     inkscape:zoom="2.8"
     inkscape:cx="42.463228"
     inkscape:cy="-32.586695"
     inkscape:document-units="px"
     inkscape:current-layer="layer1"
     showgrid="false"
     units="px"
     inkscape:window-width="1600"
     inkscape:window-height="876"
     inkscape:window-x="0"
     inkscape:window-y="24"
     inkscape:window-maximized="1" />
  <metadata
     id="metadata21751">
    <rdf:RDF>
      <cc:Work
         rdf:about="">
        <dc:format>image/svg+xml</dc:format>
        <dc:type
           rdf:resource="http://purl.org/dc/dcmitype/StillImage" />
        <dc:title></dc:title>
      </cc:Work>
    </rdf:RDF>
  </metadata>
  <g
     inkscape:label="Layer 1"
     inkscape:groupmode="layer"
     id="layer1"
     transform="translate(0,-984.36216)">
    <g
       id="g19043"
       transform="matrix(1.25,0,0,-1.25,-410.58638,1118.0142)">
      <g
         clip-path="url(#clipPath19047)"
         id="g19045">
        <g
           transform="translate(366.041,64.7881)"
           id="g19051">
          <path
             inkscape:connector-curvature="0"
             id="path19053"
             style="fill:#231f20;fill-opacity:1;fill-rule:nonzero;stroke:none"
             d="m 0,0 c 0,0 -4.532,-6.866 -12.333,-6.866 -5.699,0 -10.221,2.163 -12.25,6.168 1.994,-4.933 6.375,-7.035 12.584,-7.035 9.533,0 13.466,6 13.466,6 L 8.045,-1.934 6.736,-0.182 0,0 Z" />
        </g>
        <g
           transform="translate(353.8408,53.7217)"
           id="g19055">
          <path
             inkscape:connector-curvature="0"
             id="path19057"
             style="fill:#231f20;fill-opacity:1;fill-rule:nonzero;stroke:none"
             d="M 0,0 C -0.368,0 -0.727,0.012 -1.086,0.024 -0.714,0.009 -0.35,0 0,0" />
        </g>
        <g
           transform="translate(332.7275,69.7266)"
           id="g19059">
          <path
             inkscape:connector-curvature="0"
             id="path19061"
             style="fill:#231f20;fill-opacity:1;fill-rule:nonzero;stroke:none"
             d="m 0,0 -0.113,0.545 c -0.295,1.559 -0.44,3.145 -0.44,4.717 0,10.333 8.467,29.333 28.134,29.333 10.967,0 15.717,-7.416 15.717,-7.416 0,0 -4.551,8.816 -16.984,8.816 -12,0 -29.2,-10.066 -29.2,-29 0,-14.399 9.703,-20.662 17.979,-22.371 C 6.177,-13.407 1.5,-7.029 0,0" />
        </g>
        <g
           transform="translate(378.9443,92.0703)"
           id="g19063">
          <path
             inkscape:connector-curvature="0"
             id="path19065"
             style="fill:#231f20;fill-opacity:1;fill-rule:nonzero;stroke:none"
             d="m 0,0 c 0,0 -0.769,1.319 -1.104,1.585 -8.333,-8.801 -18.89,-16.398 -29.091,-24.023 0.932,-1.201 1.955,-1.462 1.955,-1.462 C -17.347,-15.573 -9.134,-10.266 0,0" />
        </g>
        <g
           transform="translate(378.9443,92.0703)"
           id="g19067">
          <path
             inkscape:connector-curvature="0"
             id="path19069"
             style="fill:#231f20;fill-opacity:1;fill-rule:nonzero;stroke:none"
             d="m 0,0 c -9.103,-12.24 -28.24,-23.9 -28.24,-23.9 l 26.338,-0.581 c 0,0 8.599,11.457 1.902,24.481" />
        </g>
        <g
           transform="translate(354.042,57.0547)"
           id="g19071">
          <path
             inkscape:connector-curvature="0"
             id="path19073"
             style="fill:#231f20;fill-opacity:1;fill-rule:nonzero;stroke:none"
             d="m 0,0 c -8.667,0 -13.801,4.067 -13.801,14.268 0,9.198 10.135,16.999 18.468,16.999 5,0 6.8,-2.333 6.8,-2.333 5.432,3.866 10.516,10.917 10.516,10.917 0,0 -4.65,7.416 -15.716,7.416 -0.468,0 -0.927,-0.014 -1.383,-0.036 C 4.892,47.229 4.899,47.229 4.908,47.226 4.708,47.22 4.507,47.212 4.307,47.2 3.799,47.167 3.299,47.12 2.807,47.062 -9.882,45.442 -21.24,32.454 -21.283,17.934 -21.33,2.234 -9.422,-2.381 -3.598,-3.139 c 0.147,-0.016 0.881,-0.087 1.122,-0.105 l 0.008,0 c 0.735,-0.054 1.486,-0.089 2.267,-0.089 15.534,0 20.245,9.133 20.245,9.133 L 13.466,6 C 13.466,6 9.533,0 0,0" />
        </g>
      </g>
    </g>
  </g>
</svg>
