<?xml version="1.0" encoding="UTF-8" standalone="no"?>
<svg
   xmlns:dc="http://purl.org/dc/elements/1.1/"
   xmlns:cc="http://creativecommons.org/ns#"
   xmlns:rdf="http://www.w3.org/1999/02/22-rdf-syntax-ns#"
   xmlns:svg="http://www.w3.org/2000/svg"
   xmlns="http://www.w3.org/2000/svg"
   xmlns:xlink="http://www.w3.org/1999/xlink"
   version="1.1"
   id="svg14223"
   viewBox="0 0 34 34"
   height="34"
   width="34">
  <defs
     id="defs14225">
    <clipPath
       id="clipPath202-2-4-1-1"
       clipPathUnits="userSpaceOnUse">
      <path
         id="path204-0-0-9-7"
         d="m 164.564,419.482 c 0,-40.17 23.84,-82.673 84.226,-82.673 l 0,0 c 60.383,0 78.7,35.501 78.7,35.501 l 0,0 -25.572,0.782 c 0,0 -15.29,-23.324 -52.35,-23.324 l 0,0 c -33.691,0 -53.647,15.808 -53.647,55.46 l 0,0 c 0,35.764 39.397,66.086 71.79,66.086 l 0,0 c 19.436,0 26.434,-9.069 26.434,-9.069 l 0,0 c 21.12,15.031 40.883,42.437 40.883,42.437 l 0,0 c 0,0 -18.079,28.831 -61.099,28.831 l 0,0 c -76.453,0 -109.365,-73.861 -109.365,-114.031" />
    </clipPath>
    <radialGradient
       id="radialGradient210-6-9-6-4"
       spreadMethod="pad"
       gradientTransform="matrix(22.86499,-185.26872,-185.26872,-22.86499,249.55176,542.10498)"
       gradientUnits="userSpaceOnUse"
       r="1"
       cy="0"
       cx="0"
       fy="0"
       fx="0">
      <stop
         id="stop212-1-19-2-1"
         offset="0"
         style="stop-opacity:1;stop-color:#d6f0fc" />
      <stop
         id="stop214-5-6-1-7"
         offset="0.198043"
         style="stop-opacity:1;stop-color:#77ccf2" />
      <stop
         id="stop216-5-2-2-1"
         offset="0.449657"
         style="stop-opacity:1;stop-color:#349ed4" />
      <stop
         id="stop218-4-5-0-1"
         offset="1"
         style="stop-opacity:1;stop-color:#0070a9" />
    </radialGradient>
    <clipPath
       id="clipPath226-3-4-7-1"
       clipPathUnits="userSpaceOnUse">
      <path
         id="path228-6-4-3-7"
         d="m 236.591,392.98 102.387,-2.264 c 0,0 33.432,44.539 7.398,95.174 l 0,0 C 310.87,445.98 278.942,425.346 236.591,392.98" />
    </clipPath>
    <radialGradient
       id="radialGradient234-1-9-1-0"
       spreadMethod="pad"
       gradientTransform="matrix(-112.67152,-94.629776,-94.629776,112.67152,358.12793,484.27686)"
       gradientUnits="userSpaceOnUse"
       r="1"
       cy="0"
       cx="0"
       fy="0"
       fx="0">
      <stop
         id="stop236-0-9-1-4"
         offset="0"
         style="stop-opacity:1;stop-color:#ffffff" />
      <stop
         id="stop238-6-3-9-0"
         offset="0.491032"
         style="stop-opacity:1;stop-color:#57b947" />
      <stop
         id="stop240-3-6-0-8"
         offset="1"
         style="stop-opacity:1;stop-color:#175c2e" />
    </radialGradient>
    <clipPath
       id="clipPath248-4-05-5-5"
       clipPathUnits="userSpaceOnUse">
      <path
         id="path250-7-0-6-1"
         d="m 248.272,353.137 c -22.155,0 -39.734,8.41 -47.622,23.98 l 0,0 c 7.752,-19.174 24.785,-27.349 48.918,-27.349 l 0,0 c 37.06,0 52.35,23.324 52.35,23.324 l 0,0 25.572,-0.782 -5.09,6.814 -26.183,0.706 c 0,0 -17.622,-26.693 -47.945,-26.693" />
    </clipPath>
    <radialGradient
       id="radialGradient256-8-2-7-6"
       spreadMethod="pad"
       gradientTransform="matrix(73.777405,40.501301,40.501301,-73.777405,249.59619,336.80957)"
       gradientUnits="userSpaceOnUse"
       r="1"
       cy="0"
       cx="0"
       fy="0"
       fx="0">
      <stop
         id="stop258-4-9-7-6"
         offset="0"
         style="stop-opacity:1;stop-color:#8acdf1" />
      <stop
         id="stop260-5-4-4-2"
         offset="0.192941"
         style="stop-opacity:1;stop-color:#5ebfec" />
      <stop
         id="stop262-0-3-0-1"
         offset="1"
         style="stop-opacity:1;stop-color:#3e99c7" />
    </radialGradient>
    <clipPath
       id="clipPath270-2-51-6-9"
       clipPathUnits="userSpaceOnUse">
      <path
         id="path272-9-7-4-6"
         d="m 248.79,336.809 c -1.432,0 -2.826,0.045 -4.222,0.093 l 0,0 c 1.444,-0.056 2.863,-0.093 4.222,-0.093" />
    </clipPath>
    <linearGradient
       y2="0"
       x2="1"
       y1="0"
       x1="0"
       spreadMethod="pad"
       gradientTransform="matrix(4.2216797,0,0,-4.2216797,244.56787,336.85596)"
       gradientUnits="userSpaceOnUse"
       id="linearGradient9182"
       xlink:href="#linearGradient278" />
    <linearGradient
       id="linearGradient278"
       spreadMethod="pad"
       gradientTransform="matrix(4.2216797,0,0,-4.2216797,244.56787,336.85596)"
       gradientUnits="userSpaceOnUse"
       y2="0"
       x2="1"
       y1="0"
       x1="0">
      <stop
         id="stop280"
         offset="0"
         style="stop-opacity:1;stop-color:#4db3e5" />
      <stop
         id="stop282"
         offset="0.991729"
         style="stop-opacity:1;stop-color:#005b88" />
      <stop
         id="stop284"
         offset="1"
         style="stop-opacity:1;stop-color:#005b88" />
    </linearGradient>
    <clipPath
       id="clipPath292-9-4-5-8"
       clipPathUnits="userSpaceOnUse">
      <path
         id="path294-7-6-8-1"
         d="m 155.492,426.22 c 0,-55.978 37.719,-80.324 69.891,-86.968 l 0,0 c -34.663,7.654 -52.84,32.451 -58.674,59.778 l 0,0 -0.436,2.113 c -1.149,6.062 -1.709,12.227 -1.709,18.339 l 0,0 c 0,40.17 32.912,114.031 109.365,114.031 l 0,0 c 42.632,0 61.099,-28.831 61.099,-28.831 l 0,0 c 0,0 -17.69,34.272 -66.023,34.272 l 0,0 c -46.649,0 -113.513,-39.133 -113.513,-112.734" />
    </clipPath>
    <linearGradient
       y2="0"
       x2="1"
       y1="0"
       x1="0"
       spreadMethod="pad"
       gradientTransform="matrix(179.53516,0,0,-179.53516,155.49219,439.10352)"
       gradientUnits="userSpaceOnUse"
       id="linearGradient9184"
       xlink:href="#linearGradient300" />
    <linearGradient
       id="linearGradient300"
       spreadMethod="pad"
       gradientTransform="matrix(179.53516,0,0,-179.53516,155.49219,439.10352)"
       gradientUnits="userSpaceOnUse"
       y2="0"
       x2="1"
       y1="0"
       x1="0">
      <stop
         id="stop302"
         offset="0"
         style="stop-opacity:1;stop-color:#4db3e5" />
      <stop
         id="stop304"
         offset="0.991729"
         style="stop-opacity:1;stop-color:#005b88" />
      <stop
         id="stop306"
         offset="1"
         style="stop-opacity:1;stop-color:#005b88" />
    </linearGradient>
    <clipPath
       id="clipPath314-9-2-6-9"
       clipPathUnits="userSpaceOnUse">
      <path
         id="path316-2-6-6-7"
         d="m 228.991,398.659 c 3.627,-4.665 7.6,-5.679 7.6,-5.679 l 0,0 c 42.351,32.366 74.279,53 109.785,92.91 l 0,0 c 0,0 -2.991,5.122 -4.289,6.158 l 0,0 C 309.692,457.839 268.653,428.303 228.991,398.659" />
    </clipPath>
    <linearGradient
       y2="0"
       x2="1"
       y1="0"
       x1="0"
       spreadMethod="pad"
       gradientTransform="matrix(117.38525,0,0,-117.38525,228.99072,442.51416)"
       gradientUnits="userSpaceOnUse"
       id="linearGradient9186"
       xlink:href="#linearGradient322" />
    <linearGradient
       id="linearGradient322"
       spreadMethod="pad"
       gradientTransform="matrix(117.38525,0,0,-117.38525,228.99072,442.51416)"
       gradientUnits="userSpaceOnUse"
       y2="0"
       x2="1"
       y1="0"
       x1="0">
      <stop
         id="stop324"
         offset="0"
         style="stop-opacity:1;stop-color:#75c043" />
      <stop
         id="stop326"
         offset="1"
         style="stop-opacity:1;stop-color:#0c8341" />
    </linearGradient>
    <clipPath
       id="clipPath334-3-2-2-4"
       clipPathUnits="userSpaceOnUse">
      <path
         id="path336-6-8-8-6"
         d="M 0,590 590,590 590,0 0,0 0,590 Z" />
    </clipPath>
    <clipPath
       id="clipPath342-7-8-9-3"
       clipPathUnits="userSpaceOnUse">
      <path
         id="path344-5-9-6-7"
         d="m 236.591,485.891 109.785,0 0,-92.91 -109.785,0 0,92.91 z" />
    </clipPath>
    <clipPath
       id="clipPath346-3-2-0-9"
       clipPathUnits="userSpaceOnUse">
      <path
         id="path348-5-8-7-7"
         d="m 236.591,392.98 c 0,0 74.398,45.323 109.785,92.91 -35.506,-39.911 -67.434,-60.543 -109.785,-92.91" />
    </clipPath>
    <linearGradient
       y2="0"
       x2="1"
       y1="0"
       x1="0"
       spreadMethod="pad"
       gradientTransform="matrix(109.78467,0,0,-109.78467,236.59131,439.43555)"
       gradientUnits="userSpaceOnUse"
       id="linearGradient9188"
       xlink:href="#linearGradient350" />
    <linearGradient
       id="linearGradient350"
       spreadMethod="pad"
       gradientTransform="matrix(109.78467,0,0,-109.78467,236.59131,439.43555)"
       gradientUnits="userSpaceOnUse"
       y2="0"
       x2="1"
       y1="0"
       x1="0">
      <stop
         id="stop352"
         offset="0"
         style="stop-opacity:1;stop-color:#ffffff" />
      <stop
         id="stop354"
         offset="1"
         style="stop-opacity:1;stop-color:#a4d071" />
    </linearGradient>
    <clipPath
       id="clipPath374-9-6-0-1"
       clipPathUnits="userSpaceOnUse">
      <path
         id="path376-1-8-1-7"
         d="m 164.564,494.708 75.257,0 0,-150.268 -75.257,0 0,150.268 z" />
    </clipPath>
    <clipPath
       id="clipPath378-2-3-3-0"
       clipPathUnits="userSpaceOnUse">
      <path
         id="path380-7-8-7-6"
         d="m 195.921,405.228 c 0,25.731 20.394,48.644 43.9,59.474 -11.288,15.008 -27.756,25.885 -46.746,30.006 -19.497,-24.045 -28.511,-54.23 -28.511,-75.226 0,-29.879 13.204,-61.031 44.811,-75.042 5.47,2.518 10.604,5.633 15.322,9.269 -18.38,6.824 -28.776,22.962 -28.776,51.519" />
    </clipPath>
    <mask
       id="mask394-0-3-7-0"
       height="1"
       width="1"
       y="0"
       x="0"
       maskUnits="userSpaceOnUse">
      <g
         id="g396-9-33-2-8">
        <g
           id="g398-3-8-6-5"
           clip-path="url(#clipPath382-2-8-0-1)">
          <g
             id="g400-6-04-4-3">
            <g
               id="g402-0-7-5-9">
              <path
                 id="path404-6-6-2-4"
                 style="fill:url(#radialGradient386-1-68-9-4);stroke:none"
                 d="m -32768,32767 65535,0 0,-65535 -65535,0 0,65535 z" />
            </g>
          </g>
        </g>
      </g>
    </mask>
    <clipPath
       id="clipPath382-2-8-0-1"
       clipPathUnits="userSpaceOnUse">
      <path
         id="path384-6-90-2-5"
         d="m -32768,32767 65535,0 0,-65535 -65535,0 0,65535 z" />
    </clipPath>
    <radialGradient
       id="radialGradient386-1-68-9-4"
       spreadMethod="pad"
       gradientTransform="matrix(83.968514,17.364439,17.364439,-83.968514,164.30371,417.14941)"
       gradientUnits="userSpaceOnUse"
       r="1"
       cy="0"
       cx="0"
       fy="0"
       fx="0">
      <stop
         id="stop388-8-7-0-1"
         offset="0"
         style="stop-opacity:1;stop-color:#ffffff" />
      <stop
         id="stop390-7-9-9-5"
         offset="0.46556645"
         style="stop-opacity:1;stop-color:#ffffff" />
      <stop
         id="stop392-9-0-9-5"
         offset="1"
         style="stop-opacity:0;stop-color:#ffffff" />
    </radialGradient>
    <radialGradient
       id="radialGradient406-2-3-4-4"
       spreadMethod="pad"
       gradientTransform="matrix(83.968514,17.364439,17.364439,-83.968514,164.30371,417.14941)"
       gradientUnits="userSpaceOnUse"
       r="1"
       cy="0"
       cx="0"
       fy="0"
       fx="0">
      <stop
         id="stop408-0-3-5-9"
         offset="0"
         style="stop-opacity:1;stop-color:#e7f6fd" />
      <stop
         id="stop410-2-3-1-8"
         offset="0.46556645"
         style="stop-opacity:1;stop-color:#e7f6fd" />
      <stop
         id="stop412-3-7-0-3"
         offset="1"
         style="stop-opacity:1;stop-color:#349ed4" />
    </radialGradient>
    <clipPath
       id="clipPath436-7-3-3-8"
       clipPathUnits="userSpaceOnUse">
      <path
         id="path438-5-2-7-5"
         d="m 164.564,533.353 104.088,0 0,-196.197 -104.088,0 0,196.197 z" />
    </clipPath>
  </defs>
  <metadata
     id="metadata14228">
    <rdf:RDF>
      <cc:Work
         rdf:about="">
        <dc:format>image/svg+xml</dc:format>
        <dc:type
           rdf:resource="http://purl.org/dc/dcmitype/StillImage" />
        <dc:title></dc:title>
      </cc:Work>
    </rdf:RDF>
  </metadata>
  <g
     transform="translate(0,-1018.3622)"
     id="layer1">
    <g
       id="g7538-6-8-2"
       transform="matrix(0.15935821,0,0,-0.15935821,-26.116456,1107.8968)">
      <g
         id="g198-7-5-8-2"
         transform="translate(15.35527,18.3685)">
        <g
           id="g200-6-2-6-2"
           clip-path="url(#clipPath202-2-4-1-1)">
          <g
             id="g206-5-65-0-7">
            <g
               id="g208-6-8-4-0">
              <path
                 d="m 164.564,419.482 c 0,-40.17 23.84,-82.673 84.226,-82.673 l 0,0 c 60.383,0 78.7,35.501 78.7,35.501 l 0,0 -25.572,0.782 c 0,0 -15.29,-23.324 -52.35,-23.324 l 0,0 c -33.691,0 -53.647,15.808 -53.647,55.46 l 0,0 c 0,35.764 39.397,66.086 71.79,66.086 l 0,0 c 19.436,0 26.434,-9.069 26.434,-9.069 l 0,0 c 21.12,15.031 40.883,42.437 40.883,42.437 l 0,0 c 0,0 -18.079,28.831 -61.099,28.831 l 0,0 c -76.453,0 -109.365,-73.861 -109.365,-114.031"
                 style="fill:url(#radialGradient210-6-9-6-4);stroke:none"
                 id="path220-9-7-6-3" />
            </g>
          </g>
        </g>
      </g>
      <g
         id="g222-3-9-7-4"
         transform="translate(15.35527,18.3685)">
        <g
           id="g224-7-6-6-6"
           clip-path="url(#clipPath226-3-4-7-1)">
          <g
             id="g230-4-0-0-3">
            <g
               id="g232-5-4-9-6">
              <path
                 d="m 236.591,392.98 102.387,-2.264 c 0,0 33.432,44.539 7.398,95.174 l 0,0 C 310.87,445.98 278.942,425.346 236.591,392.98"
                 style="fill:url(#radialGradient234-1-9-1-0);stroke:none"
                 id="path242-2-1-7-3" />
            </g>
          </g>
        </g>
      </g>
      <g
         id="g244-5-0-5-3"
         transform="translate(15.35527,18.3685)">
        <g
           id="g246-4-4-9-4"
           clip-path="url(#clipPath248-4-05-5-5)">
          <g
             id="g252-7-87-7-4">
            <g
               id="g254-4-0-8-3">
              <path
                 d="m 248.272,353.137 c -22.155,0 -39.734,8.41 -47.622,23.98 l 0,0 c 7.752,-19.174 24.785,-27.349 48.918,-27.349 l 0,0 c 37.06,0 52.35,23.324 52.35,23.324 l 0,0 25.572,-0.782 -5.09,6.814 -26.183,0.706 c 0,0 -17.622,-26.693 -47.945,-26.693"
                 style="fill:url(#radialGradient256-8-2-7-6);stroke:none"
                 id="path264-4-8-5-9" />
            </g>
          </g>
        </g>
      </g>
      <g
         id="g266-3-6-3-7"
         transform="translate(15.35527,18.3685)">
        <g
           id="g268-0-2-3-2"
           clip-path="url(#clipPath270-2-51-6-9)">
          <g
             id="g274-7-4-8-5">
            <g
               id="g276-8-7-3-8">
              <path
                 d="m 248.79,336.809 c -1.432,0 -2.826,0.045 -4.222,0.093 l 0,0 c 1.444,-0.056 2.863,-0.093 4.222,-0.093"
                 style="fill:url(#linearGradient9182);stroke:none"
                 id="path286-6-9-7-9" />
            </g>
          </g>
        </g>
      </g>
      <g
         id="g288-8-3-9-0"
         transform="translate(15.35527,18.3685)">
        <g
           id="g290-8-9-3-2"
           clip-path="url(#clipPath292-9-4-5-8)">
          <g
             id="g296-4-2-7-4">
            <g
               id="g298-3-8-8-7">
              <path
                 d="m 155.492,426.22 c 0,-55.978 37.719,-80.324 69.891,-86.968 l 0,0 c -34.663,7.654 -52.84,32.451 -58.674,59.778 l 0,0 -0.436,2.113 c -1.149,6.062 -1.709,12.227 -1.709,18.339 l 0,0 c 0,40.17 32.912,114.031 109.365,114.031 l 0,0 c 42.632,0 61.099,-28.831 61.099,-28.831 l 0,0 c 0,0 -17.69,34.272 -66.023,34.272 l 0,0 c -46.649,0 -113.513,-39.133 -113.513,-112.734"
                 style="fill:url(#linearGradient9184);stroke:none"
                 id="path308-1-3-7-6" />
            </g>
          </g>
        </g>
      </g>
      <g
         id="g310-4-0-4-5"
         transform="translate(15.35527,18.3685)">
        <g
           id="g312-9-1-1-7"
           clip-path="url(#clipPath314-9-2-6-9)">
          <g
             id="g318-2-7-9-1">
            <g
               id="g320-0-8-0-3">
              <path
                 d="m 228.991,398.659 c 3.627,-4.665 7.6,-5.679 7.6,-5.679 l 0,0 c 42.351,32.366 74.279,53 109.785,92.91 l 0,0 c 0,0 -2.991,5.122 -4.289,6.158 l 0,0 C 309.692,457.839 268.653,428.303 228.991,398.659"
                 style="fill:url(#linearGradient9186);stroke:none"
                 id="path328-6-9-9-3" />
            </g>
          </g>
        </g>
      </g>
      <g
         id="g330-8-1-8-3"
         transform="translate(15.35527,18.3685)">
        <g
           id="g332-9-5-8-8"
           clip-path="url(#clipPath334-3-2-2-4)">
          <g
             id="g338-2-4-5-5">
            <g
               id="g340-6-9-8-1" />
            <g
               id="g356-6-2-4-0">
              <g
                 clip-path="url(#clipPath342-7-8-9-3)"
                 id="g358-4-5-3-8"
                 style="opacity:0.60000598">
                <g
                   id="g360-9-74-7-7">
                  <g
                     clip-path="url(#clipPath346-3-2-0-9)"
                     id="g362-5-9-1-6">
                    <g
                       id="g364-0-9-3-3">
                      <g
                         id="g366-4-4-8-5">
                        <path
                           d="m 236.591,392.98 c 0,0 74.398,45.323 109.785,92.91 -35.506,-39.911 -67.434,-60.543 -109.785,-92.91"
                           style="fill:url(#linearGradient9188);stroke:none"
                           id="path368-8-5-0-0" />
                      </g>
                    </g>
                  </g>
                </g>
              </g>
            </g>
          </g>
          <g
             id="g370-7-9-9-8">
            <g
               id="g372-1-3-7-0" />
            <g
               id="g414-7-5-9-4">
              <g
                 clip-path="url(#clipPath374-9-6-0-1)"
                 id="g416-2-7-9-1"
                 style="opacity:0.80000299">
                <g
                   id="g418-7-0-3-1">
                  <g
                     clip-path="url(#clipPath378-2-3-3-0)"
                     id="g420-2-8-2-3">
                    <g
                       id="g422-2-1-4-5">
                      <g
                         id="g424-6-9-3-9" />
                      <g
                         mask="url(#mask394-0-3-7-0)"
                         id="g426-1-9-7-3">
                        <g
                           id="g428-0-7-1-4">
                          <path
                             d="m 195.921,405.228 c 0,25.731 20.394,48.644 43.9,59.474 -11.288,15.008 -27.756,25.885 -46.746,30.006 -19.497,-24.045 -28.511,-54.23 -28.511,-75.226 0,-29.879 13.204,-61.031 44.811,-75.042 5.47,2.518 10.604,5.633 15.322,9.269 -18.38,6.824 -28.776,22.962 -28.776,51.519"
                             style="fill:url(#radialGradient406-2-3-4-4);stroke:none"
                             id="path430-6-8-2-1" />
                        </g>
                      </g>
                    </g>
                  </g>
                </g>
              </g>
            </g>
          </g>
          <g
             id="g432-1-2-2-5">
            <g
               id="g434-5-53-0-0" />
            <g
               id="g440-9-4-2-8">
              <g
                 clip-path="url(#clipPath436-7-3-3-8)"
                 id="g442-4-90-1-3"
                 style="opacity:0.69999701">
                <g
                   transform="translate(166.8315,419.4819)"
                   id="g444-9-2-7-5">
                  <path
                     d="M 0,0 C 0.179,59.543 49.306,112.477 101.821,113.871 29.145,110.548 -2.267,39.228 -2.267,0 -2.267,-38.149 19.26,-78.375 73.148,-82.327 52.837,-81.279 -0.194,-65.308 0,0"
                     style="fill:#ffffff;fill-opacity:1;fill-rule:nonzero;stroke:none"
                     id="path446-0-0-5-6" />
                </g>
              </g>
            </g>
          </g>
        </g>
      </g>
    </g>
  </g>
</svg>
