<?xml version="1.0" encoding="UTF-8" standalone="no"?>
<!-- Created with Inkscape (http://www.inkscape.org/) -->

<svg
   xmlns:dc="http://purl.org/dc/elements/1.1/"
   xmlns:cc="http://creativecommons.org/ns#"
   xmlns:rdf="http://www.w3.org/1999/02/22-rdf-syntax-ns#"
   xmlns:svg="http://www.w3.org/2000/svg"
   xmlns="http://www.w3.org/2000/svg"
   xmlns:xlink="http://www.w3.org/1999/xlink"
   xmlns:sodipodi="http://sodipodi.sourceforge.net/DTD/sodipodi-0.dtd"
   xmlns:inkscape="http://www.inkscape.org/namespaces/inkscape"
   width="235"
   height="35"
   viewBox="0 0 235 35.000001"
   id="svg11048"
   version="1.1"
   inkscape:version="0.91 r13725"
   sodipodi:docname="logo_header.svg">
  <defs
     id="defs11050">
    <clipPath
       clipPathUnits="userSpaceOnUse"
       id="clipPath202-2-4-1-1-8">
      <path
         d="m 164.564,419.482 c 0,-40.17 23.84,-82.673 84.226,-82.673 l 0,0 c 60.383,0 78.7,35.501 78.7,35.501 l 0,0 -25.572,0.782 c 0,0 -15.29,-23.324 -52.35,-23.324 l 0,0 c -33.691,0 -53.647,15.808 -53.647,55.46 l 0,0 c 0,35.764 39.397,66.086 71.79,66.086 l 0,0 c 19.436,0 26.434,-9.069 26.434,-9.069 l 0,0 c 21.12,15.031 40.883,42.437 40.883,42.437 l 0,0 c 0,0 -18.079,28.831 -61.099,28.831 l 0,0 c -76.453,0 -109.365,-73.861 -109.365,-114.031"
         id="path204-0-0-9-7-1"
         inkscape:connector-curvature="0" />
    </clipPath>
    <radialGradient
       fx="0"
       fy="0"
       cx="0"
       cy="0"
       r="1"
       gradientUnits="userSpaceOnUse"
       gradientTransform="matrix(22.86499,-185.26872,-185.26872,-22.86499,249.55176,542.10498)"
       spreadMethod="pad"
       id="radialGradient210-6-9-6-4-6">
      <stop
         style="stop-opacity:1;stop-color:#d6f0fc"
         offset="0"
         id="stop212-1-19-2-1-3" />
      <stop
         style="stop-opacity:1;stop-color:#77ccf2"
         offset="0.198043"
         id="stop214-5-6-1-7-9" />
      <stop
         style="stop-opacity:1;stop-color:#349ed4"
         offset="0.449657"
         id="stop216-5-2-2-1-3" />
      <stop
         style="stop-opacity:1;stop-color:#0070a9"
         offset="1"
         id="stop218-4-5-0-1-34" />
    </radialGradient>
    <clipPath
       clipPathUnits="userSpaceOnUse"
       id="clipPath226-3-4-7-1-6">
      <path
         d="m 236.591,392.98 102.387,-2.264 c 0,0 33.432,44.539 7.398,95.174 l 0,0 C 310.87,445.98 278.942,425.346 236.591,392.98"
         id="path228-6-4-3-7-1"
         inkscape:connector-curvature="0" />
    </clipPath>
    <radialGradient
       fx="0"
       fy="0"
       cx="0"
       cy="0"
       r="1"
       gradientUnits="userSpaceOnUse"
       gradientTransform="matrix(-112.67152,-94.629776,-94.629776,112.67152,358.12793,484.27686)"
       spreadMethod="pad"
       id="radialGradient234-1-9-1-0-5">
      <stop
         style="stop-opacity:1;stop-color:#ffffff"
         offset="0"
         id="stop236-0-9-1-4-6" />
      <stop
         style="stop-opacity:1;stop-color:#57b947"
         offset="0.491032"
         id="stop238-6-3-9-0-1" />
      <stop
         style="stop-opacity:1;stop-color:#175c2e"
         offset="1"
         id="stop240-3-6-0-8-7" />
    </radialGradient>
    <clipPath
       clipPathUnits="userSpaceOnUse"
       id="clipPath248-4-05-5-5-2">
      <path
         d="m 248.272,353.137 c -22.155,0 -39.734,8.41 -47.622,23.98 l 0,0 c 7.752,-19.174 24.785,-27.349 48.918,-27.349 l 0,0 c 37.06,0 52.35,23.324 52.35,23.324 l 0,0 25.572,-0.782 -5.09,6.814 -26.183,0.706 c 0,0 -17.622,-26.693 -47.945,-26.693"
         id="path250-7-0-6-1-2"
         inkscape:connector-curvature="0" />
    </clipPath>
    <radialGradient
       fx="0"
       fy="0"
       cx="0"
       cy="0"
       r="1"
       gradientUnits="userSpaceOnUse"
       gradientTransform="matrix(73.777405,40.501301,40.501301,-73.777405,249.59619,336.80957)"
       spreadMethod="pad"
       id="radialGradient256-8-2-7-6-9">
      <stop
         style="stop-opacity:1;stop-color:#8acdf1"
         offset="0"
         id="stop258-4-9-7-6-2" />
      <stop
         style="stop-opacity:1;stop-color:#5ebfec"
         offset="0.192941"
         id="stop260-5-4-4-2-8" />
      <stop
         style="stop-opacity:1;stop-color:#3e99c7"
         offset="1"
         id="stop262-0-3-0-1-1" />
    </radialGradient>
    <clipPath
       clipPathUnits="userSpaceOnUse"
       id="clipPath270-2-51-6-9-2">
      <path
         d="m 248.79,336.809 c -1.432,0 -2.826,0.045 -4.222,0.093 l 0,0 c 1.444,-0.056 2.863,-0.093 4.222,-0.093"
         id="path272-9-7-4-6-4"
         inkscape:connector-curvature="0" />
    </clipPath>
    <linearGradient
       inkscape:collect="always"
       xlink:href="#linearGradient278"
       id="linearGradient10900"
       gradientUnits="userSpaceOnUse"
       gradientTransform="matrix(4.2216797,0,0,-4.2216797,244.56787,336.85596)"
       spreadMethod="pad"
       x1="0"
       y1="0"
       x2="1"
       y2="0" />
    <linearGradient
       x1="0"
       y1="0"
       x2="1"
       y2="0"
       gradientUnits="userSpaceOnUse"
       gradientTransform="matrix(4.2216797,0,0,-4.2216797,244.56787,336.85596)"
       spreadMethod="pad"
       id="linearGradient278">
      <stop
         style="stop-opacity:1;stop-color:#4db3e5"
         offset="0"
         id="stop280" />
      <stop
         style="stop-opacity:1;stop-color:#005b88"
         offset="0.991729"
         id="stop282" />
      <stop
         style="stop-opacity:1;stop-color:#005b88"
         offset="1"
         id="stop284" />
    </linearGradient>
    <clipPath
       clipPathUnits="userSpaceOnUse"
       id="clipPath292-9-4-5-8-77">
      <path
         d="m 155.492,426.22 c 0,-55.978 37.719,-80.324 69.891,-86.968 l 0,0 c -34.663,7.654 -52.84,32.451 -58.674,59.778 l 0,0 -0.436,2.113 c -1.149,6.062 -1.709,12.227 -1.709,18.339 l 0,0 c 0,40.17 32.912,114.031 109.365,114.031 l 0,0 c 42.632,0 61.099,-28.831 61.099,-28.831 l 0,0 c 0,0 -17.69,34.272 -66.023,34.272 l 0,0 c -46.649,0 -113.513,-39.133 -113.513,-112.734"
         id="path294-7-6-8-1-2"
         inkscape:connector-curvature="0" />
    </clipPath>
    <linearGradient
       inkscape:collect="always"
       xlink:href="#linearGradient300"
       id="linearGradient10902"
       gradientUnits="userSpaceOnUse"
       gradientTransform="matrix(179.53516,0,0,-179.53516,155.49219,439.10352)"
       spreadMethod="pad"
       x1="0"
       y1="0"
       x2="1"
       y2="0" />
    <linearGradient
       x1="0"
       y1="0"
       x2="1"
       y2="0"
       gradientUnits="userSpaceOnUse"
       gradientTransform="matrix(179.53516,0,0,-179.53516,155.49219,439.10352)"
       spreadMethod="pad"
       id="linearGradient300">
      <stop
         style="stop-opacity:1;stop-color:#4db3e5"
         offset="0"
         id="stop302" />
      <stop
         style="stop-opacity:1;stop-color:#005b88"
         offset="0.991729"
         id="stop304" />
      <stop
         style="stop-opacity:1;stop-color:#005b88"
         offset="1"
         id="stop306" />
    </linearGradient>
    <clipPath
       clipPathUnits="userSpaceOnUse"
       id="clipPath314-9-2-6-9-3">
      <path
         d="m 228.991,398.659 c 3.627,-4.665 7.6,-5.679 7.6,-5.679 l 0,0 c 42.351,32.366 74.279,53 109.785,92.91 l 0,0 c 0,0 -2.991,5.122 -4.289,6.158 l 0,0 C 309.692,457.839 268.653,428.303 228.991,398.659"
         id="path316-2-6-6-7-7"
         inkscape:connector-curvature="0" />
    </clipPath>
    <linearGradient
       inkscape:collect="always"
       xlink:href="#linearGradient322"
       id="linearGradient10904"
       gradientUnits="userSpaceOnUse"
       gradientTransform="matrix(117.38525,0,0,-117.38525,228.99072,442.51416)"
       spreadMethod="pad"
       x1="0"
       y1="0"
       x2="1"
       y2="0" />
    <linearGradient
       x1="0"
       y1="0"
       x2="1"
       y2="0"
       gradientUnits="userSpaceOnUse"
       gradientTransform="matrix(117.38525,0,0,-117.38525,228.99072,442.51416)"
       spreadMethod="pad"
       id="linearGradient322">
      <stop
         style="stop-opacity:1;stop-color:#75c043"
         offset="0"
         id="stop324" />
      <stop
         style="stop-opacity:1;stop-color:#0c8341"
         offset="1"
         id="stop326" />
    </linearGradient>
    <clipPath
       clipPathUnits="userSpaceOnUse"
       id="clipPath334-3-2-2-4-36">
      <path
         d="M 0,590 590,590 590,0 0,0 0,590 Z"
         id="path336-6-8-8-6-40"
         inkscape:connector-curvature="0" />
    </clipPath>
    <clipPath
       clipPathUnits="userSpaceOnUse"
       id="clipPath342-7-8-9-3-3">
      <path
         d="m 236.591,485.891 109.785,0 0,-92.91 -109.785,0 0,92.91 z"
         id="path344-5-9-6-7-5"
         inkscape:connector-curvature="0" />
    </clipPath>
    <clipPath
       clipPathUnits="userSpaceOnUse"
       id="clipPath346-3-2-0-9-8">
      <path
         d="m 236.591,392.98 c 0,0 74.398,45.323 109.785,92.91 -35.506,-39.911 -67.434,-60.543 -109.785,-92.91"
         id="path348-5-8-7-7-5"
         inkscape:connector-curvature="0" />
    </clipPath>
    <linearGradient
       inkscape:collect="always"
       xlink:href="#linearGradient350"
       id="linearGradient10906"
       gradientUnits="userSpaceOnUse"
       gradientTransform="matrix(109.78467,0,0,-109.78467,236.59131,439.43555)"
       spreadMethod="pad"
       x1="0"
       y1="0"
       x2="1"
       y2="0" />
    <linearGradient
       x1="0"
       y1="0"
       x2="1"
       y2="0"
       gradientUnits="userSpaceOnUse"
       gradientTransform="matrix(109.78467,0,0,-109.78467,236.59131,439.43555)"
       spreadMethod="pad"
       id="linearGradient350">
      <stop
         style="stop-opacity:1;stop-color:#ffffff"
         offset="0"
         id="stop352" />
      <stop
         style="stop-opacity:1;stop-color:#a4d071"
         offset="1"
         id="stop354" />
    </linearGradient>
    <clipPath
       clipPathUnits="userSpaceOnUse"
       id="clipPath374-9-6-0-1-8">
      <path
         d="m 164.564,494.708 75.257,0 0,-150.268 -75.257,0 0,150.268 z"
         id="path376-1-8-1-7-0"
         inkscape:connector-curvature="0" />
    </clipPath>
    <clipPath
       clipPathUnits="userSpaceOnUse"
       id="clipPath378-2-3-3-0-2">
      <path
         d="m 195.921,405.228 c 0,25.731 20.394,48.644 43.9,59.474 -11.288,15.008 -27.756,25.885 -46.746,30.006 -19.497,-24.045 -28.511,-54.23 -28.511,-75.226 0,-29.879 13.204,-61.031 44.811,-75.042 5.47,2.518 10.604,5.633 15.322,9.269 -18.38,6.824 -28.776,22.962 -28.776,51.519"
         id="path380-7-8-7-6-4"
         inkscape:connector-curvature="0" />
    </clipPath>
    <mask
       maskUnits="userSpaceOnUse"
       x="0"
       y="0"
       width="1"
       height="1"
       id="mask394-0-3-7-0-9">
      <g
         id="g396-9-33-2-8-01">
        <g
           clip-path="url(#clipPath382-2-8-0-1-39)"
           id="g398-3-8-6-5-2">
          <g
             id="g400-6-04-4-3-0">
            <g
               id="g402-0-7-5-9-0">
              <path
                 d="m -32768,32767 65535,0 0,-65535 -65535,0 0,65535 z"
                 style="fill:url(#radialGradient386-1-68-9-4-83);stroke:none"
                 id="path404-6-6-2-4-6"
                 inkscape:connector-curvature="0" />
            </g>
          </g>
        </g>
      </g>
    </mask>
    <clipPath
       clipPathUnits="userSpaceOnUse"
       id="clipPath382-2-8-0-1-39">
      <path
         d="m -32768,32767 65535,0 0,-65535 -65535,0 0,65535 z"
         id="path384-6-90-2-5-0"
         inkscape:connector-curvature="0" />
    </clipPath>
    <radialGradient
       fx="0"
       fy="0"
       cx="0"
       cy="0"
       r="1"
       gradientUnits="userSpaceOnUse"
       gradientTransform="matrix(83.968514,17.364439,17.364439,-83.968514,164.30371,417.14941)"
       spreadMethod="pad"
       id="radialGradient386-1-68-9-4-83">
      <stop
         style="stop-opacity:1;stop-color:#ffffff"
         offset="0"
         id="stop388-8-7-0-1-8" />
      <stop
         style="stop-opacity:1;stop-color:#ffffff"
         offset="0.46556645"
         id="stop390-7-9-9-5-7" />
      <stop
         style="stop-opacity:0;stop-color:#ffffff"
         offset="1"
         id="stop392-9-0-9-5-3" />
    </radialGradient>
    <radialGradient
       fx="0"
       fy="0"
       cx="0"
       cy="0"
       r="1"
       gradientUnits="userSpaceOnUse"
       gradientTransform="matrix(83.968514,17.364439,17.364439,-83.968514,164.30371,417.14941)"
       spreadMethod="pad"
       id="radialGradient406-2-3-4-4-1">
      <stop
         style="stop-opacity:1;stop-color:#e7f6fd"
         offset="0"
         id="stop408-0-3-5-9-0" />
      <stop
         style="stop-opacity:1;stop-color:#e7f6fd"
         offset="0.46556645"
         id="stop410-2-3-1-8-0" />
      <stop
         style="stop-opacity:1;stop-color:#349ed4"
         offset="1"
         id="stop412-3-7-0-3-5" />
    </radialGradient>
    <clipPath
       clipPathUnits="userSpaceOnUse"
       id="clipPath436-7-3-3-8-0">
      <path
         d="m 164.564,533.353 104.088,0 0,-196.197 -104.088,0 0,196.197 z"
         id="path438-5-2-7-5-3"
         inkscape:connector-curvature="0" />
    </clipPath>
  </defs>
  <sodipodi:namedview
     id="base"
     pagecolor="#ffffff"
     bordercolor="#666666"
     borderopacity="1.0"
     inkscape:pageopacity="0.0"
     inkscape:pageshadow="2"
     inkscape:zoom="2.8"
     inkscape:cx="153.77883"
     inkscape:cy="67.795451"
     inkscape:document-units="px"
     inkscape:current-layer="layer1"
     showgrid="false"
     inkscape:window-width="1600"
     inkscape:window-height="876"
     inkscape:window-x="0"
     inkscape:window-y="24"
     inkscape:window-maximized="1"
     units="px" />
  <metadata
     id="metadata11053">
    <rdf:RDF>
      <cc:Work
         rdf:about="">
        <dc:format>image/svg+xml</dc:format>
        <dc:type
           rdf:resource="http://purl.org/dc/dcmitype/StillImage" />
        <dc:title></dc:title>
      </cc:Work>
    </rdf:RDF>
  </metadata>
  <g
     inkscape:label="Layer 1"
     inkscape:groupmode="layer"
     id="layer1"
     transform="translate(0,-1017.3622)">
    <text
       style="font-variant:normal;font-weight:bold;font-stretch:normal;font-size:34.32832336px;font-family:Montserrat;-inkscape-font-specification:Montserrat-Bold;writing-mode:lr-tb;fill:#000000;fill-opacity:1;fill-rule:nonzero;stroke:none"
       id="text448-7-9"
       x="43.577087"
       y="1047.0903">
      <tspan
         sodipodi:role="line"
         id="tspan450-2-9"
         x="43.577087"
         y="1047.0903"
         style="font-size:28.15920639px;fill:#000000">EİSTATİSTİK</tspan>
    </text>
    <g
       transform="matrix(0.15935821,0,0,-0.15935821,-25.816883,1107.7415)"
       id="g7538-6-8-2-1">
      <g
         transform="translate(15.35527,18.3685)"
         id="g198-7-5-8-2-8">
        <g
           clip-path="url(#clipPath202-2-4-1-1-8)"
           id="g200-6-2-6-2-0">
          <g
             id="g206-5-65-0-7-1">
            <g
               id="g208-6-8-4-0-7">
              <path
                 inkscape:connector-curvature="0"
                 id="path220-9-7-6-3-9"
                 style="fill:url(#radialGradient210-6-9-6-4-6);stroke:none"
                 d="m 164.564,419.482 c 0,-40.17 23.84,-82.673 84.226,-82.673 l 0,0 c 60.383,0 78.7,35.501 78.7,35.501 l 0,0 -25.572,0.782 c 0,0 -15.29,-23.324 -52.35,-23.324 l 0,0 c -33.691,0 -53.647,15.808 -53.647,55.46 l 0,0 c 0,35.764 39.397,66.086 71.79,66.086 l 0,0 c 19.436,0 26.434,-9.069 26.434,-9.069 l 0,0 c 21.12,15.031 40.883,42.437 40.883,42.437 l 0,0 c 0,0 -18.079,28.831 -61.099,28.831 l 0,0 c -76.453,0 -109.365,-73.861 -109.365,-114.031" />
            </g>
          </g>
        </g>
      </g>
      <g
         transform="translate(15.35527,18.3685)"
         id="g222-3-9-7-4-1">
        <g
           clip-path="url(#clipPath226-3-4-7-1-6)"
           id="g224-7-6-6-6-0">
          <g
             id="g230-4-0-0-3-35">
            <g
               id="g232-5-4-9-6-9">
              <path
                 inkscape:connector-curvature="0"
                 id="path242-2-1-7-3-4"
                 style="fill:url(#radialGradient234-1-9-1-0-5);stroke:none"
                 d="m 236.591,392.98 102.387,-2.264 c 0,0 33.432,44.539 7.398,95.174 l 0,0 C 310.87,445.98 278.942,425.346 236.591,392.98" />
            </g>
          </g>
        </g>
      </g>
      <g
         transform="translate(15.35527,18.3685)"
         id="g244-5-0-5-3-84">
        <g
           clip-path="url(#clipPath248-4-05-5-5-2)"
           id="g246-4-4-9-4-69">
          <g
             id="g252-7-87-7-4-2">
            <g
               id="g254-4-0-8-3-9">
              <path
                 inkscape:connector-curvature="0"
                 id="path264-4-8-5-9-0"
                 style="fill:url(#radialGradient256-8-2-7-6-9);stroke:none"
                 d="m 248.272,353.137 c -22.155,0 -39.734,8.41 -47.622,23.98 l 0,0 c 7.752,-19.174 24.785,-27.349 48.918,-27.349 l 0,0 c 37.06,0 52.35,23.324 52.35,23.324 l 0,0 25.572,-0.782 -5.09,6.814 -26.183,0.706 c 0,0 -17.622,-26.693 -47.945,-26.693" />
            </g>
          </g>
        </g>
      </g>
      <g
         transform="translate(15.35527,18.3685)"
         id="g266-3-6-3-7-3">
        <g
           clip-path="url(#clipPath270-2-51-6-9-2)"
           id="g268-0-2-3-2-0">
          <g
             id="g274-7-4-8-5-3">
            <g
               id="g276-8-7-3-8-3">
              <path
                 inkscape:connector-curvature="0"
                 id="path286-6-9-7-9-7"
                 style="fill:url(#linearGradient10900);stroke:none"
                 d="m 248.79,336.809 c -1.432,0 -2.826,0.045 -4.222,0.093 l 0,0 c 1.444,-0.056 2.863,-0.093 4.222,-0.093" />
            </g>
          </g>
        </g>
      </g>
      <g
         transform="translate(15.35527,18.3685)"
         id="g288-8-3-9-0-9">
        <g
           clip-path="url(#clipPath292-9-4-5-8-77)"
           id="g290-8-9-3-2-4">
          <g
             id="g296-4-2-7-4-9">
            <g
               id="g298-3-8-8-7-9">
              <path
                 inkscape:connector-curvature="0"
                 id="path308-1-3-7-6-1"
                 style="fill:url(#linearGradient10902);stroke:none"
                 d="m 155.492,426.22 c 0,-55.978 37.719,-80.324 69.891,-86.968 l 0,0 c -34.663,7.654 -52.84,32.451 -58.674,59.778 l 0,0 -0.436,2.113 c -1.149,6.062 -1.709,12.227 -1.709,18.339 l 0,0 c 0,40.17 32.912,114.031 109.365,114.031 l 0,0 c 42.632,0 61.099,-28.831 61.099,-28.831 l 0,0 c 0,0 -17.69,34.272 -66.023,34.272 l 0,0 c -46.649,0 -113.513,-39.133 -113.513,-112.734" />
            </g>
          </g>
        </g>
      </g>
      <g
         transform="translate(15.35527,18.3685)"
         id="g310-4-0-4-5-94">
        <g
           clip-path="url(#clipPath314-9-2-6-9-3)"
           id="g312-9-1-1-7-2">
          <g
             id="g318-2-7-9-1-06">
            <g
               id="g320-0-8-0-3-5">
              <path
                 inkscape:connector-curvature="0"
                 id="path328-6-9-9-3-9"
                 style="fill:url(#linearGradient10904);stroke:none"
                 d="m 228.991,398.659 c 3.627,-4.665 7.6,-5.679 7.6,-5.679 l 0,0 c 42.351,32.366 74.279,53 109.785,92.91 l 0,0 c 0,0 -2.991,5.122 -4.289,6.158 l 0,0 C 309.692,457.839 268.653,428.303 228.991,398.659" />
            </g>
          </g>
        </g>
      </g>
      <g
         transform="translate(15.35527,18.3685)"
         id="g330-8-1-8-3-5">
        <g
           clip-path="url(#clipPath334-3-2-2-4-36)"
           id="g332-9-5-8-8-6">
          <g
             id="g338-2-4-5-5-1">
            <g
               id="g340-6-9-8-1-1" />
            <g
               id="g356-6-2-4-0-4">
              <g
                 style="opacity:0.60000598"
                 id="g358-4-5-3-8-37"
                 clip-path="url(#clipPath342-7-8-9-3-3)">
                <g
                   id="g360-9-74-7-7-2">
                  <g
                     id="g362-5-9-1-6-7"
                     clip-path="url(#clipPath346-3-2-0-9-8)">
                    <g
                       id="g364-0-9-3-3-3">
                      <g
                         id="g366-4-4-8-5-3">
                        <path
                           inkscape:connector-curvature="0"
                           id="path368-8-5-0-0-9"
                           style="fill:url(#linearGradient10906);stroke:none"
                           d="m 236.591,392.98 c 0,0 74.398,45.323 109.785,92.91 -35.506,-39.911 -67.434,-60.543 -109.785,-92.91" />
                      </g>
                    </g>
                  </g>
                </g>
              </g>
            </g>
          </g>
          <g
             id="g370-7-9-9-8-2">
            <g
               id="g372-1-3-7-0-4" />
            <g
               id="g414-7-5-9-4-4">
              <g
                 style="opacity:0.80000299"
                 id="g416-2-7-9-1-4"
                 clip-path="url(#clipPath374-9-6-0-1-8)">
                <g
                   id="g418-7-0-3-1-9">
                  <g
                     id="g420-2-8-2-3-9"
                     clip-path="url(#clipPath378-2-3-3-0-2)">
                    <g
                       id="g422-2-1-4-5-3">
                      <g
                         id="g424-6-9-3-9-8" />
                      <g
                         id="g426-1-9-7-3-3"
                         mask="url(#mask394-0-3-7-0-9)">
                        <g
                           id="g428-0-7-1-4-2">
                          <path
                             inkscape:connector-curvature="0"
                             id="path430-6-8-2-1-95"
                             style="fill:url(#radialGradient406-2-3-4-4-1);stroke:none"
                             d="m 195.921,405.228 c 0,25.731 20.394,48.644 43.9,59.474 -11.288,15.008 -27.756,25.885 -46.746,30.006 -19.497,-24.045 -28.511,-54.23 -28.511,-75.226 0,-29.879 13.204,-61.031 44.811,-75.042 5.47,2.518 10.604,5.633 15.322,9.269 -18.38,6.824 -28.776,22.962 -28.776,51.519" />
                        </g>
                      </g>
                    </g>
                  </g>
                </g>
              </g>
            </g>
          </g>
          <g
             id="g432-1-2-2-5-4">
            <g
               id="g434-5-53-0-0-3" />
            <g
               id="g440-9-4-2-8-9">
              <g
                 style="opacity:0.69999701"
                 id="g442-4-90-1-3-4"
                 clip-path="url(#clipPath436-7-3-3-8-0)">
                <g
                   id="g444-9-2-7-5-9"
                   transform="translate(166.8315,419.4819)">
                  <path
                     inkscape:connector-curvature="0"
                     id="path446-0-0-5-6-5"
                     style="fill:#ffffff;fill-opacity:1;fill-rule:nonzero;stroke:none"
                     d="M 0,0 C 0.179,59.543 49.306,112.477 101.821,113.871 29.145,110.548 -2.267,39.228 -2.267,0 -2.267,-38.149 19.26,-78.375 73.148,-82.327 52.837,-81.279 -0.194,-65.308 0,0" />
                </g>
              </g>
            </g>
          </g>
        </g>
      </g>
    </g>
  </g>
</svg>
